<svg id="_x31__px" height="512" viewBox="0 0 24 24" width="512" xmlns="http://www.w3.org/2000/svg"><path d="m16.5 24c-.051 0-.103-.008-.153-.023-.206-.067-.347-.259-.347-.477v-10c0-.202.122-.385.309-.462.188-.076.402-.034.545.108l7 7c.15.15.189.379.097.57s-.288.305-.506.28l-4.208-.468-2.33 3.262c-.096.135-.249.21-.407.21zm.5-9.293v7.232l1.593-2.23c.105-.146.278-.226.462-.206l3.083.343z"/><path d="m5.25 9h-1.75c-.276 0-.5-.224-.5-.5v-5c0-.276.224-.5.5-.5h1.75c.965 0 1.75.785 1.75 1.75 0 .489-.202.932-.526 1.25.324.318.526.761.526 1.25 0 .965-.785 1.75-1.75 1.75zm-1.25-1h1.25c.414 0 .75-.337.75-.75s-.336-.75-.75-.75h-1.25zm0-2.5h1.25c.414 0 .75-.337.75-.75s-.336-.75-.75-.75h-1.25z"/><path d="m11.5 9h-1c-.827 0-1.5-.673-1.5-1.5v-4c0-.276.224-.5.5-.5s.5.224.5.5v4c0 .275.224.5.5.5h1c.276 0 .5-.225.5-.5v-4c0-.276.224-.5.5-.5s.5.224.5.5v4c0 .827-.673 1.5-1.5 1.5z"/><path d="m17 6.5c-.176 0-.338-.092-.429-.243l-1.5-2.5c-.142-.236-.065-.544.171-.686.237-.145.544-.064.686.172l1.072 1.785 1.071-1.785c.142-.236.449-.316.686-.172.237.142.313.449.171.686l-1.5 2.5c-.09.151-.252.243-.428.243z"/><path d="m17 9c-.276 0-.5-.224-.5-.5v-2.5c0-.276.224-.5.5-.5s.5.224.5.5v2.5c0 .276-.224.5-.5.5z"/><path d="m19.5 12c-.276 0-.5-.224-.5-.5s.224-.5.5-.5c.827 0 1.5-.673 1.5-1.5v-7c0-.827-.673-1.5-1.5-1.5h-17c-.827 0-1.5.673-1.5 1.5v7c0 .827.673 1.5 1.5 1.5h12c.276 0 .5.224.5.5s-.224.5-.5.5h-12c-1.378 0-2.5-1.121-2.5-2.5v-7c0-1.379 1.122-2.5 2.5-2.5h17c1.378 0 2.5 1.121 2.5 2.5v7c0 1.379-1.122 2.5-2.5 2.5z"/></svg>